<?xml version="1.0" encoding="UTF-8"?><svg id="Camada_1" xmlns="http://www.w3.org/2000/svg" viewBox="0 0 421.04 124.7"><defs><style>.cls-1{fill:#fffdff;}.cls-1,.cls-2,.cls-3{stroke-width:0px;}.cls-2{fill:#dd4a3a;}.cls-3{fill:#fff;}</style></defs><path class="cls-2" d="M12.05,73.43c0-2.84,0-5.67,0-8.51,1.74-1.4,3.34-.73,5.06.19,3.52,1.88,6.83,4.12,10.43,5.87,2.09,1.02,4.02,1.44,6.14.24,10.98-6.24,21.99-12.44,32.87-18.86.79-.47,1.88-.87,1.75-2.42-2.13-.69-3.7.7-5.33,1.63-8.52,4.86-17.05,9.7-25.54,14.59-4.83,2.78-9.34,2.98-13.93-.39-3.93-2.89-9.31-3.91-11.44-9.07,0-2.87,0-5.75,0-8.62,1.98-1.68,3.75-.39,5.51.44,1.95.92,3.9,1.98,5.56,3.28,5.44,4.24,10.31,3.47,15.85-.19,8.3-5.49,17.21-9.99,25.82-15,1.38-.8,3.15-1.19,3.69-3.33-1.8-1.05-3.07.19-4.44.93-9.18,5.01-18.23,10.24-27.25,15.53-4.06,2.38-7.87,2.79-11.64.18-4.54-3.14-10.59-4.39-13.11-10.15-.05-4.33-.3-8.66-.11-12.98.39-9.13,6.8-15.84,15.92-15.93,22.65-.23,45.31-.22,67.96,0,9.32.09,15.9,6.95,15.97,16.38.16,22.32.16,44.64,0,66.96-.07,9.65-6.77,16.4-16.4,16.47-22.32.17-44.64.16-66.96,0-9.65-.07-16.21-6.77-16.5-16.39-.13-4.16.08-8.32.13-12.48,2.4-1.75,4.39-.37,6.41.82,14.74,8.66,10.52,7.85,25.23-.31,7.56-4.2,15.07-8.47,22.51-12.88.97-.58,2.11-.99,2.54-2.53-2.28-1.19-3.87.43-5.4,1.32-8.06,4.66-16.36,8.94-24.18,13.97-5.76,3.71-11.05,3.93-16.58-.08-3.69-2.68-8.72-3.73-10.53-8.68Z"/><path class="cls-1" d="M12.05,73.43c4.62,2.62,9.37,5.03,13.83,7.91,3.36,2.17,6.23,2.21,9.65.16,9.13-5.45,18.4-10.68,27.62-15.97,1.43-.82,2.88-1.76,4.45-2.18,2.57-.7,4.88.8,5.87,2.72,1.18,2.27-1.6,2.79-3.04,3.63-11.64,6.76-23.37,13.37-34.95,20.24-3.26,1.94-5.94,2.14-9.2.05-4.61-2.95-9.48-5.49-14.23-8.2,0-2.79,0-5.58,0-8.37Z"/><path class="cls-3" d="M12.05,56.7c4.63,2.6,9.35,5.03,13.84,7.84,3.34,2.09,6.19,2.18,9.64.1,9.25-5.57,18.67-10.83,28.04-16.19,1.29-.74,2.61-1.55,4.03-1.89,2.55-.61,4.89.71,5.89,2.71,1.21,2.41-1.73,2.79-3.1,3.6-11.75,6.89-23.6,13.61-35.34,20.51-2.92,1.72-5.45,1.81-8.35.02-4.81-2.96-9.76-5.67-14.65-8.48,0-2.74,0-5.48,0-8.22Z"/><path class="cls-3" d="M12.05,39.77c4.77,2.69,9.65,5.19,14.26,8.12,3.27,2.08,5.96,1.85,9.19-.08,9.41-5.61,18.97-10.96,28.5-16.38,1.28-.73,2.65-1.59,4.05-1.76,2.28-.27,4.63.87,5.49,2.74,1.08,2.34-1.73,2.81-3.14,3.63-11.76,6.87-23.6,13.6-35.34,20.5-2.91,1.71-5.46,1.78-8.35.02-4.82-2.94-9.77-5.67-14.66-8.48,0-2.77,0-5.54,0-8.31Z"/><path class="cls-2" d="M145.64,44.41h26.21l-15.38,26.96h14.5v7.27h-27.68l15.45-26.96h-13.09v-7.27Z"/><path class="cls-2" d="M172.93,44.41h8.78l8.89,21.48,9.81-21.48h8.8l-21.44,46.75h-8.87l7.04-15.07-13.01-31.67Z"/><path class="cls-2" d="M214.1,44.41h8.59v3.51c1.95-1.64,3.71-2.78,5.29-3.43,1.58-.64,3.2-.96,4.85-.96,3.39,0,6.27,1.19,8.64,3.56,1.99,2.01,2.98,4.99,2.98,8.93v22.62h-8.49v-14.99c0-4.08-.18-6.8-.55-8.14-.37-1.34-1-2.36-1.91-3.06-.91-.7-2.04-1.05-3.38-1.05-1.74,0-3.23.58-4.47,1.74-1.25,1.16-2.11,2.77-2.59,4.82-.25,1.07-.38,3.38-.38,6.94v13.73h-8.59v-34.23Z"/><path class="cls-2" d="M287.05,64.01h-27.59c.4,2.43,1.46,4.37,3.19,5.8,1.73,1.44,3.94,2.16,6.62,2.16,3.21,0,5.97-1.12,8.27-3.37l7.24,3.4c-1.8,2.56-3.96,4.45-6.48,5.68-2.52,1.23-5.5,1.84-8.97,1.84-5.37,0-9.74-1.69-13.12-5.08-3.38-3.39-5.06-7.63-5.06-12.72s1.68-9.56,5.05-13.01,7.59-5.18,12.66-5.18c5.39,0,9.77,1.73,13.15,5.18s5.07,8.01,5.07,13.67l-.03,1.64ZM278.46,57.25c-.57-1.91-1.69-3.46-3.36-4.66-1.67-1.2-3.61-1.79-5.81-1.79-2.4,0-4.5.67-6.3,2.01-1.13.84-2.18,2.32-3.15,4.44h18.62Z"/><path class="cls-2" d="M310.08,43.53c3.23,0,6.26.81,9.11,2.42,2.84,1.62,5.06,3.81,6.65,6.57,1.59,2.77,2.39,5.76,2.39,8.97s-.8,6.25-2.41,9.06c-1.6,2.81-3.79,5.01-6.56,6.59s-5.82,2.38-9.15,2.38c-4.91,0-9.1-1.75-12.57-5.24-3.47-3.49-5.21-7.73-5.21-12.72,0-5.35,1.96-9.8,5.88-13.37,3.44-3.1,7.39-4.66,11.86-4.66ZM310.22,51.62c-2.67,0-4.89.93-6.67,2.78-1.78,1.86-2.66,4.23-2.66,7.13s.88,5.39,2.63,7.24c1.75,1.85,3.98,2.77,6.66,2.77s4.93-.93,6.71-2.8c1.79-1.87,2.68-4.27,2.68-7.2s-.88-5.32-2.63-7.16c-1.75-1.83-4-2.75-6.73-2.75Z"/><path class="cls-2" d="M334.3,31.2h8.59v47.44h-8.59V31.2Z"/><path class="cls-2" d="M354.04,30.32c1.51,0,2.8.55,3.87,1.64,1.08,1.09,1.62,2.41,1.62,3.96s-.53,2.84-1.6,3.92c-1.07,1.08-2.34,1.62-3.83,1.62s-2.83-.55-3.91-1.65-1.62-2.44-1.62-4.01.53-2.8,1.6-3.87c1.07-1.07,2.35-1.6,3.86-1.6ZM349.75,44.41h8.59v34.23h-8.59v-34.23Z"/><path class="cls-2" d="M387.09,49.19l-5.32,5.32c-2.16-2.14-4.12-3.21-5.88-3.21-.96,0-1.72.2-2.27.61-.54.41-.82.92-.82,1.53,0,.46.17.89.52,1.27.35.39,1.2.92,2.56,1.59l3.15,1.57c3.31,1.64,5.59,3.3,6.83,5s1.86,3.69,1.86,5.98c0,3.04-1.12,5.58-3.35,7.61-2.23,2.04-5.23,3.05-8.98,3.05-4.99,0-8.98-1.95-11.95-5.85l5.29-5.76c1.01,1.17,2.19,2.12,3.54,2.85,1.35.72,2.55,1.09,3.6,1.09,1.13,0,2.04-.27,2.74-.82.69-.54,1.04-1.17,1.04-1.89,0-1.32-1.25-2.61-3.74-3.87l-2.89-1.45c-5.54-2.79-8.3-6.28-8.3-10.48,0-2.71,1.04-5.02,3.13-6.94s4.75-2.88,8.01-2.88c2.22,0,4.32.49,6.28,1.46s3.62,2.38,4.99,4.2Z"/><path class="cls-2" d="M395.52,31.8h8.59v12.61h5.1v7.39h-5.1v26.83h-8.59v-26.83h-4.4v-7.39h4.4v-12.61Z"/></svg>